<?xml version="1.0" standalone="no"?>
<!DOCTYPE svg PUBLIC "-//W3C//DTD SVG 20010904//EN"
 "http://www.w3.org/TR/2001/REC-SVG-20010904/DTD/svg10.dtd">
<svg version="1.0" xmlns="http://www.w3.org/2000/svg"
 width="225.000000pt" height="225.000000pt" viewBox="0 0 225.000000 225.000000"
 preserveAspectRatio="xMidYMid meet">
<metadata>
Created by potrace 1.14, written by Peter Selinger 2001-2017
</metadata>
<g transform="translate(0.000000,225.000000) scale(0.100000,-0.100000)"
fill="#000000" stroke="none">
<path d="M928 2049 c-14 -8 -18 -24 -18 -74 0 -42 -4 -65 -11 -65 -7 0 -50
-16 -96 -36 l-84 -36 -44 41 c-25 23 -50 41 -57 41 -22 0 -288 -273 -288 -295
0 -10 18 -37 40 -60 l39 -40 -24 -50 c-13 -28 -30 -69 -37 -92 l-12 -43 -57 0
c-79 0 -89 -12 -89 -105 l0 -74 -86 -3 c-70 -2 -89 -6 -98 -20 -8 -13 -8 -23
0 -35 10 -17 46 -18 484 -21 341 -1 477 1 486 9 20 17 17 57 -5 69 -11 5 -63
10 -116 10 l-95 0 6 28 c14 60 55 134 101 180 143 143 372 144 514 2 44 -44
91 -127 103 -182 l6 -28 -95 0 c-53 0 -105 -5 -116 -10 -22 -12 -25 -52 -5
-69 9 -8 145 -10 486 -9 438 3 474 4 484 21 8 12 8 22 0 35 -9 14 -28 18 -98
20 l-86 3 0 74 c0 93 -10 105 -89 105 l-57 0 -12 43 c-7 23 -24 64 -37 92
l-24 50 39 40 c22 23 40 50 40 61 0 21 -267 294 -288 294 -7 0 -32 -18 -57
-41 l-44 -41 -84 36 c-46 20 -89 36 -96 36 -7 0 -11 23 -11 65 0 53 -3 66 -19
75 -26 13 -370 13 -393 -1z m322 -125 c0 -66 11 -80 86 -104 37 -12 98 -37
135 -56 38 -19 71 -34 74 -34 3 0 25 18 48 40 l43 39 89 -89 89 -90 -37 -38
c-43 -44 -45 -59 -13 -115 13 -23 37 -78 52 -122 15 -44 32 -86 37 -92 5 -8
32 -13 63 -13 l54 0 0 -40 0 -40 -194 0 -194 0 -11 50 c-49 230 -285 390 -517
352 -182 -30 -337 -176 -375 -352 l-11 -50 -194 0 -194 0 0 40 0 40 54 0 c31
0 58 5 63 13 5 6 22 48 37 92 15 44 39 99 52 122 32 56 30 71 -13 115 l-37 38
89 90 89 89 43 -39 c23 -22 45 -40 48 -40 3 0 36 15 74 34 37 19 98 44 135 56
75 24 86 38 86 104 l0 46 125 0 125 0 0 -46z"/>
<path d="M1097 1152 c-30 -33 -15 -72 28 -72 43 0 59 44 27 73 -24 22 -35 21
-55 -1z"/>
<path d="M1695 912 c-153 -72 -154 -291 -2 -367 28 -14 66 -25 84 -25 128 0
171 -171 57 -225 -58 -27 -114 -11 -154 45 -22 31 -48 38 -68 18 -33 -33 8
-102 81 -139 58 -30 149 -23 207 15 58 38 95 118 87 188 -12 96 -75 161 -173
179 -78 14 -104 28 -132 69 -41 61 -12 141 61 169 45 17 77 9 121 -30 38 -33
72 -36 90 -7 15 24 -10 65 -58 97 -51 34 -143 40 -201 13z"/>
<path d="M365 896 c-39 -17 -70 -52 -90 -98 -22 -54 -22 -412 0 -466 32 -74
79 -107 171 -117 115 -13 213 24 248 94 24 46 28 97 11 115 -32 31 -75 13 -75
-32 0 -66 -52 -96 -158 -90 -66 3 -77 6 -98 31 -24 28 -24 32 -24 228 0 118 4
208 10 220 6 10 24 26 40 34 37 19 142 20 179 1 28 -15 51 -53 51 -85 0 -42
72 -54 84 -13 16 52 -37 147 -97 176 -44 20 -207 22 -252 2z"/>
<path d="M856 894 c-14 -13 -16 -58 -16 -335 l0 -319 25 -12 c21 -10 29 -9 43
6 15 14 18 46 22 233 l5 216 90 -162 c89 -161 109 -186 139 -175 9 3 57 81
108 172 l93 166 3 -214 c2 -181 5 -217 19 -232 20 -22 37 -23 57 -2 14 13 16
57 16 329 0 272 -2 316 -16 329 -8 9 -18 16 -20 16 -25 0 -58 -48 -156 -225
-62 -112 -115 -204 -118 -204 -3 -1 -56 92 -119 205 -98 177 -131 224 -155
224 -2 0 -12 -7 -20 -16z"/>
</g>
</svg>
